<svg width="24" height="24" viewBox="0 0 24 24" fill="none" xmlns="http://www.w3.org/2000/svg">
<path d="M4.44364 7.70702L11.5971 4.08897C11.9655 3.92784 12.2878 4.02183 12.4029 4.08897L19.2844 7.64641C19.7239 7.87365 20 8.32715 20 8.82199L16.2926 10.6663C14.9282 11.3451 13.3254 11.3536 11.9534 10.6903C10.569 10.021 8.95048 10.036 7.57919 10.7319L4 12.548V8.25774C4 8.16649 4.02995 8.07777 4.08526 8.0052C4.18065 7.88 4.30318 7.77806 4.44364 7.70702Z" fill="#2AB6B6" stroke="#2AB6B6" stroke-width="4.92611"/>
<path d="M19.5564 16.293L12.4029 19.911C12.0345 20.0722 11.7122 19.9782 11.5971 19.911L4.71565 16.3536C4.27607 16.1263 4 15.6728 4 15.178L7.70737 13.3337C9.07182 12.6549 10.6746 12.6464 12.0466 13.3097C13.431 13.979 15.0495 13.964 16.4208 13.2681L20 11.452V15.7423C20 15.8335 19.97 15.9222 19.9147 15.9948C19.8193 16.12 19.6968 16.2219 19.5564 16.293Z" fill="#2AB6B6" stroke="#2AB6B6" stroke-width="4.92611"/>
</svg>
